<?xml version="1.0" encoding="utf-8" standalone="yes"?>
<!DOCTYPE svg PUBLIC "-//W3C//DTD SVG 1.1//EN" "http://www.w3.org/Graphics/SVG/1.1/DTD/svg11.dtd">
<svg width="779" height="388" viewBox="0 0 779 388" style="fill:none;stroke:none;fill-rule:evenodd;clip-rule:evenodd;stroke-linecap:round;stroke-linejoin:round;stroke-miterlimit:1.5;" version="1.1" xmlns="http://www.w3.org/2000/svg" xmlns:xlink="http://www.w3.org/1999/xlink"><style class="text-font-style fontImports" data-font-family="Roboto">@import url('https://fonts.googleapis.com/css2?family=Roboto:wght@400;700&amp;display=block');</style><g id="items" style="isolation: isolate"><g id="blend" style="mix-blend-mode: normal"><g id="g-root-sy_0_cu_1hgc0zy10ydgcg-fill" data-item-order="-118402" transform="translate(18.128005981445312, 38)"><g id="sy_0_cu_1hgc0zy10ydgcg-fill" stroke="none" fill="#666666"><g><path d="M 94.251091 283C 94.251091 279.692 94.251091 264.059 90.580691 261C 85.673191 256.91 79.221891 257.967 71.002791 259.313C 66.158191 260.106 60.699491 261 54.580591 261C 40.172391 261 34.916291 252.865 36.580591 242.5C 38.085791 233.126 36.690491 232.097 34.110291 230.193C 33.636791 229.844 33.123391 229.465 32.580691 229C 29.080691 226 27.580691 220 30.580691 216.5C 26.580691 212 24.436891 207.155 27.080691 203C 30.580691 197.5 29.580691 192 23.080691 190.5C 22.626291 190.395 22.143591 190.225 21.506591 190C 20.496691 189.644 19.098891 189.151 16.811291 188.565C 13.080691 187.61 5.871991 179.431 13.080691 169.5C 15.876091 165.649 18.632391 162.27 21.152991 159.18C 27.649591 151.216 32.580691 145.171 32.580691 137.91C 32.580691 135.155 31.861691 133.224 31.033391 131C 29.907991 127.977 28.580691 124.413 28.580691 117.5C 28.580691 58.1294 76.710091 10 136.080991 10C 195.450991 10 243.580991 58.1294 243.580991 117.5C 243.580991 155.855 223.832991 180.246 216.721991 189.028L 216.649991 189.117C 210.103991 197.204 200.649991 208.932 200.649991 225.5L 200.649991 283C 200.649991 287.226 195.049991 301.554 145.665991 301.554C 96.282791 301.554 94.251091 286.308 94.251091 283ZM 135.999991 208C 185.705991 208 225.999991 167.706 225.999991 118C 225.999991 68.2944 185.705991 28 135.999991 28C 86.294491 28 46.000091 68.2944 46.000091 118C 46.000091 167.706 86.294491 208 135.999991 208Z"></path></g></g></g><g id="g-root-sy_2_cu_144vimm10ydhxd-fill" data-item-order="-118398" transform="translate(262.78033447265625, 172.322265625)"><g id="sy_2_cu_144vimm10ydhxd-fill" stroke="none" fill="#3cc583"><g><path d="M 144.372 27.3149C 101.2244 26.5205 59.2262 21.0517 18.8597 11.3959L 13.0244 10L 10 22.6433L 15.8354 24.0392C 57.1679 33.9261 100.1641 39.517 144.324 40.3162L 144.298 47.1538L 167.347 33.9606L 144.397 20.5959L 144.372 27.3149Z"></path></g></g></g><g id="g-root-sy_1_cu_v9uzgu10ydfka-fill" data-item-order="-118394" transform="translate(262.78033447265625, 75)"><g id="sy_1_cu_v9uzgu10ydfka-fill" stroke="none" fill="#4e88e7"><g><path d="M 167.347 23.1932L 144.397 36.5579L 144.372 29.8389C 101.2244 30.6333 59.2262 36.1021 18.8597 45.758L 13.0244 47.1539L 10 34.5106L 15.8354 33.1147C 57.1679 23.2277 100.1641 17.6368 144.324 16.8376L 144.298 10L 167.347 23.1932Z"></path></g></g></g><g id="g-root-ic_shie_74glq10yj1u0-fill" data-item-order="-1296" transform="translate(432.1279602050781, 70)"><g id="ic_shie_74glq10yj1u0-fill" stroke="none" fill="#4e88e7"><g><path d="M 45.25 13C 45.266724 12.398292 45.035046 11.816227 44.609413 11.390591C 44.183773 10.964954 43.601711 10.733276 43 10.75L 13 10.75C 12.398292 10.733276 11.816227 10.964954 11.390591 11.390591C 10.964954 11.816227 10.733276 12.398292 10.75 13L 10.75 23.875C 10.775856 34.109947 17.868811 42.969917 27.85 45.235001L 28.150002 45.235001C 38.131191 42.969917 45.224144 34.109947 45.250004 23.875002ZM 36.445 35.5C 36.232979 35.814999 35.879681 36.005669 35.5 36.010002L 20.5 36.010002C 20.120317 36.005669 19.767019 35.814999 19.555 35.5C 19.347517 35.182827 19.313686 34.782494 19.465 34.435001C 20.832539 30.882477 24.19524 28.494902 28 28.375C 31.771612 28.472399 35.125168 30.800438 36.534996 34.299999C 36.686314 34.647495 36.652481 35.047829 36.445 35.364998ZM 29.799999 22C 30.814373 21.996073 31.823545 21.85479 32.799999 21.58C 32.904087 21.528999 33.025913 21.528999 33.130001 21.58C 33.219723 21.658628 33.264664 21.776602 33.25 21.894999C 32.953606 24.69701 30.50374 26.769012 27.691397 26.596252C 24.879055 26.423496 22.701214 24.067221 22.75 21.25C 22.756081 20.871349 22.801319 20.494341 22.885 20.125C 22.91704 20.010054 22.999937 19.916103 23.110001 19.869999C 23.214088 19.818998 23.335911 19.818998 23.440001 19.869999C 25.286879 21.224178 27.510071 21.968739 29.799999 22ZM 24.460001 18.01C 24.368368 17.950397 24.312195 17.849289 24.309999 17.74C 24.314201 17.646614 24.357811 17.559393 24.43 17.5C 25.381926 16.558163 26.661049 16.020716 28.000002 16C 29.971359 15.99599 31.778811 17.096682 32.68 18.85C 32.724289 18.950329 32.724289 19.064671 32.68 19.164999C 32.635231 19.267223 32.54726 19.344198 32.439999 19.375C 31.57247 19.654543 30.666456 19.796267 29.755001 19.795C 27.847397 19.764675 25.996635 19.140764 24.460001 18.01Z"></path></g></g></g><g id="g-root-ic_5_7qxou10ydgco-fill" data-item-order="-1296" transform="translate(432.1279602050781, 178)"><g id="ic_5_7qxou10ydgco-fill" stroke="none" fill="#3cc583"><g><path d="M 29.289999 31.33C 29.101103 31.11779 28.864658 30.953304 28.6 30.85C 28.302443 30.754704 27.982555 30.754704 27.684999 30.849998C 27.504337 30.892565 27.335308 30.974518 27.189999 31.09C 26.415567 31.789436 25.521225 32.343319 24.549999 32.725002C 22.602619 33.456009 20.497435 33.66291 18.445 33.324997C 18.445002 38.610367 22.729635 42.895 28.014999 42.895C 33.300365 42.895 37.585003 38.610367 37.585003 33.325001C 34.660118 34.002281 31.587048 33.263187 29.289999 31.33ZM 29.17 39.654999C 29.170002 40.276321 28.666321 40.779999 28.045002 40.779999C 27.423679 40.779999 26.920002 40.276321 26.920002 39.654999L 26.92 34.494999C 26.920002 33.87368 27.423679 33.370003 28.045002 33.370003C 28.666321 33.370003 29.170002 33.87368 29.170002 34.494999ZM 45.654999 38.050003C 44.290001 36.550003 43.329998 34.494999 42.925003 28.405001C 41.5 7.975 14.5 8.035 13.075 28.405001C 12.67 34.494999 11.71 36.489998 10.345 38.050003C 10.084826 38.351929 9.971364 38.753391 10.03501 39.146835C 10.098656 39.540283 10.332904 39.885498 10.675 40.090004C 14.110501 42.053284 18.053833 42.946411 22 42.654999C 18.814178 40.622002 16.885622 37.104225 16.885 33.325001C 16.883286 32.902641 17.059715 32.49913 17.370941 32.2136C 17.682169 31.928072 18.099352 31.786983 18.52 31.825001L 18.52 26.92C 22.196239 26.381367 25.558678 24.545858 28 21.744999C 30.42621 24.533436 33.765285 26.3678 37.420002 26.92L 37.420002 31.84C 37.845543 31.792896 38.270935 31.929882 38.589027 32.216454C 38.907124 32.503021 39.087601 32.911865 39.084999 33.34C 39.085815 37.10807 37.16988 40.61779 34 42.654999C 37.956512 42.957119 41.912529 42.063488 45.355 40.09C 45.692516 39.880371 45.920551 39.532703 45.978359 39.139614C 46.036167 38.746521 45.917877 38.347923 45.654999 38.050003Z"></path></g></g></g><g id="g-root-tx_anonymiz_dikyz210ydhxi-fill" data-item-order="0" transform="translate(480.1279602050781, 76)"><g id="tx_anonymiz_dikyz210ydhxi-fill" stroke="none" fill="#4e88e7"><g><text style="font: bold 20px &quot;Roboto&quot;, sans-serif; white-space: pre;" font-weight="bold" font-size="20px" font-family="'Roboto', sans-serif"><tspan x="12" y="34" dominant-baseline="ideographic">Anonymized Data</tspan></text></g></g></g><g id="g-root-tx_whichdat_4nkfta10ydfkf-fill" data-item-order="0" transform="translate(72.12799072265625, 106)"><g id="tx_whichdat_4nkfta10ydfkf-fill" stroke="none" fill="#484848"><g><text style="font: bold 20px &quot;Roboto&quot;, sans-serif; white-space: pre;" font-weight="bold" font-size="20px" font-family="'Roboto', sans-serif"><tspan x="31.63" y="34" dominant-baseline="ideographic">Which data </tspan><tspan x="15.36" y="58" dominant-baseline="ideographic">anonymization </tspan><tspan x="12.36" y="82" dominant-baseline="ideographic">method to use?</tspan></text></g></g></g><g id="g-root-tx_offersno_hyeh3i10ydh59-fill" data-item-order="0" transform="translate(480.1279602050781, 112)"><g id="tx_offersno_hyeh3i10ydh59-fill" stroke="none" fill="#3a4455"><g><text style="font: 20px &quot;Roboto&quot;, sans-serif; white-space: pre;" font-size="20px" font-family="'Roboto', sans-serif"><tspan x="12" y="34" dominant-baseline="ideographic">Offers no reidentification </tspan><tspan x="12" y="58" dominant-baseline="ideographic">risk, ensuring privacy.</tspan></text></g></g></g><g id="g-root-tx_pseudony_qu1hce10ydgck-fill" data-item-order="0" transform="translate(480.1279602050781, 184)"><g id="tx_pseudony_qu1hce10ydgck-fill" stroke="none" fill="#3cc583"><g><text style="font: bold 20px &quot;Roboto&quot;, sans-serif; white-space: pre;" font-weight="bold" font-size="20px" font-family="'Roboto', sans-serif"><tspan x="12" y="34" dominant-baseline="ideographic">Pseudonymized Data</tspan></text></g></g></g><g id="g-root-tx_allowsso_v9uzgu10ydfkb-fill" data-item-order="0" transform="translate(480.1279602050781, 220)"><g id="tx_allowsso_v9uzgu10ydfkb-fill" stroke="none" fill="#374840"><g><text style="font: 20px &quot;Roboto&quot;, sans-serif; white-space: pre;" font-size="20px" font-family="'Roboto', sans-serif"><tspan x="12" y="34" dominant-baseline="ideographic">Allows some reidentification, </tspan><tspan x="12" y="58" dominant-baseline="ideographic">balancing privacy and utility.</tspan></text></g></g></g><g id="g-root-sy_0_cu_1hgc0zy10ydgcg-stroke" data-item-order="-118402" transform="translate(18.128005981445312, 38)"><g id="sy_0_cu_1hgc0zy10ydgcg-stroke" fill="none" stroke-linecap="round" stroke-linejoin="round" stroke-miterlimit="4" stroke="#ffffff" stroke-width="2"><g><path d="M 94.251091 283.0001C 94.251091 279.6921 94.251091 264.0588 90.580691 261.0001C 85.673191 256.9105 79.221891 257.9669 71.002791 259.3128C 66.158191 260.1062 60.699491 261.0001 54.580591 261.0001C 40.172391 261.0001 34.916291 252.8652 36.580591 242.5C 38.085791 233.1262 36.690491 232.0968 34.110291 230.1933C 33.636791 229.8439 33.123391 229.4652 32.580691 229C 29.080691 226 27.580691 220 30.580691 216.5C 26.580691 212 24.436891 207.1545 27.080691 203C 30.580691 197.5 29.580691 192 23.080691 190.5C 22.626291 190.3951 22.143591 190.2249 21.506591 190.0003C 20.496691 189.6442 19.098891 189.1514 16.811191 188.5654C 13.080691 187.6097 5.871991 179.4306 13.080691 169.5C 15.876091 165.6491 18.632391 162.2701 21.152991 159.1801C 27.649591 151.2162 32.580691 145.1712 32.580691 137.9105C 32.580691 135.1548 31.861691 133.224 31.033391 130.9995C 29.907991 127.9771 28.580691 124.4125 28.580691 117.5C 28.580691 58.1294 76.710091 10 136.080691 10C 195.451291 10 243.580691 58.1294 243.580691 117.5C 243.580691 155.8549 223.832691 180.2462 216.722491 189.0282L 216.650291 189.1173C 210.103591 197.2037 200.650291 208.932 200.650291 225.5L 200.650291 283.0001C 200.650291 287.2262 195.049991 301.5538 145.666391 301.5538C 96.282791 301.5538 94.251091 286.308 94.251091 283.0001ZM 136.000091 208C 185.705691 208 226.000091 167.7056 226.000091 118C 226.000091 68.2944 185.705691 28 136.000091 28C 86.294491 28 46.000091 68.2944 46.000091 118C 46.000091 167.7056 86.294491 208 136.000091 208Z"></path></g></g></g><g id="g-root-sy_2_cu_144vimm10ydhxd-stroke" data-item-order="-118398" transform="translate(262.78033447265625, 172.322265625)"><g id="sy_2_cu_144vimm10ydhxd-stroke" fill="none" stroke-linecap="round" stroke-linejoin="round" stroke-miterlimit="4" stroke="#ffffff" stroke-width="2"><g><path d="M 144.3721 27.3149C 101.2244 26.5205 59.2262 21.0517 18.8597 11.3959L 13.0244 10L 10 22.6433L 15.8354 24.0392C 57.1679 33.9261 100.1641 39.517 144.3236 40.3162L 144.2982 47.1538L 167.3475 33.9606L 144.3971 20.5959L 144.3721 27.3149Z"></path></g></g></g><g id="g-root-sy_1_cu_v9uzgu10ydfka-stroke" data-item-order="-118394" transform="translate(262.78033447265625, 75)"><g id="sy_1_cu_v9uzgu10ydfka-stroke" fill="none" stroke-linecap="round" stroke-linejoin="round" stroke-miterlimit="4" stroke="#ffffff" stroke-width="2"><g><path d="M 167.3475 23.1932L 144.3971 36.5579L 144.3721 29.8389C 101.2244 30.6333 59.2262 36.1021 18.8597 45.758L 13.0244 47.1539L 10 34.5106L 15.8354 33.1147C 57.1679 23.2277 100.1641 17.6368 144.3236 16.8376L 144.2982 10L 167.3475 23.1932Z"></path></g></g></g><g id="g-root-ic_shie_74glq10yj1u0-stroke" data-item-order="-1296" transform="translate(432.1279602050781, 70)"></g><g id="g-root-ic_5_7qxou10ydgco-stroke" data-item-order="-1296" transform="translate(432.1279602050781, 178)"></g><g id="g-root-tx_anonymiz_dikyz210ydhxi-stroke" data-item-order="0" transform="translate(480.1279602050781, 76)"></g><g id="g-root-tx_whichdat_4nkfta10ydfkf-stroke" data-item-order="0" transform="translate(72.12799072265625, 106)"></g><g id="g-root-tx_offersno_hyeh3i10ydh59-stroke" data-item-order="0" transform="translate(480.1279602050781, 112)"></g><g id="g-root-tx_pseudony_qu1hce10ydgck-stroke" data-item-order="0" transform="translate(480.1279602050781, 184)"></g><g id="g-root-tx_allowsso_v9uzgu10ydfkb-stroke" data-item-order="0" transform="translate(480.1279602050781, 220)"></g></g></g><path id="w1qbzaq612ch0qw" d="M65.283 12.757a.35.35 0 0 0 .584.157l5.203-5.141-6.183 3.523.396 1.461zm-2.216-11.7a.35.35 0 0 0-.522.305v3.111l3.276-1.868-2.754-1.548zm3.728 2.105l-4.25 2.421v2.445l6.391-3.644-2.141-1.222zm4.708 3.303a.35.35 0 0 0 0-.609l-1.592-.9-7.365 4.199v1.782a.35.35 0 0 0 .523.305l8.435-4.777z M44.542 2.513c0-.433.355-.783.792-.783s.792.35.792.783-.355.783-.792.783-.792-.35-.792-.783zm59.171 0c0-.433.355-.783.792-.783s.792.35.792.783-.355.783-.792.783-.792-.35-.792-.783zm-85.951 7.636h-1.27v-.487c-.276.201-.864.609-1.881.609-1.202 0-2.274-.794-2.137-2.078.118-1.106 1.153-1.584 1.848-1.727l2.17-.345c0-.539-.29-.956-1.064-1.006s-1.21.305-1.571 1.017l-1.124-.605c1.218-2.631 5.029-1.764 5.029.414v4.207zm-1.27-2.86c.006.396-.062 1.112-.819 1.59-.587.37-1.841.299-1.903-.395-.049-.555.461-.791.906-.898l1.816-.297zm72.662 2.86h-1.27v-.487c-.276.201-.864.609-1.881.609-1.202 0-2.274-.794-2.137-2.078.118-1.106 1.153-1.584 1.848-1.727l2.17-.345c0-.539-.29-.956-1.064-1.006s-1.21.305-1.571 1.017l-1.124-.605c1.218-2.631 5.029-1.764 5.029.414v4.207zm-1.27-2.86c.006.396-.062 1.112-.82 1.59-.587.37-1.841.299-1.903-.395-.049-.555.461-.791.906-.898l1.816-.297zM99.096 10.149H97.85v-8.45h1.246v4.895l2.68-2.559h1.738l-2.633 2.535 2.715 3.578h-1.556l-2.077-2.707-.867.844v1.863zm6.053-6.114h-1.255v6.113h1.255V4.035zm-59.2 0h-1.255v6.113h1.255V4.035zm5.584 6.113V1.697h1.255v2.695c.361-.346 1-.485 1.47-.485 1.452 0 2.477 1.082 2.457 2.448v3.792h-1.27v-3.68c0-.408-.214-1.339-1.315-1.339-.968 0-1.342.756-1.342 1.339v3.681h-1.255zm-4.76-4.894V4.039h.621a.45.45 0 0 0 .45-.45v-.855h1.251v1.305h1.309v1.215h-1.309v3.109c0 .293.105.664.648.664.365 0 .531-.035.736-.07v1.137s-.361.113-.857.113c-1.398 0-1.777-1.051-1.777-1.788V5.254h-1.071zM36.528 4.039h-1.394l2.191 6.106h1.125l1.234-3.918 1.238 3.918h1.129l2.188-6.106h-1.383l-1.359 3.93-1.256-3.93h-1.124l-1.242 3.957-1.348-3.957zM26.212 7.141c-.02 1.566 1.187 3.129 3.223 3.129 1.566 0 2.383-.918 2.734-1.719L31.172 8c-.315.399-.801 1.094-1.738 1.094-1.145 0-1.825-.781-1.891-1.52h4.625c.074-.284.148-.995-.03-1.559-.336-1.064-1.221-2.102-2.839-2.102s-3.088 1.152-3.088 3.227zm1.363-.75h3.348c-.055-.43-.566-1.301-1.623-1.301a1.79 1.79 0 0 0-1.725 1.301zm-8.758.75c.038 1.758 1.277 3.133 3.145 3.133 1.074 0 1.723-.477 1.961-.672v.547h1.242V1.703h-1.258v2.888c-.414-.36-1.062-.68-1.93-.68-1.91 0-3.198 1.473-3.16 3.23zm1.309-.08c0 1.119.723 1.978 1.836 1.978a1.88 1.88 0 0 0 1.94-1.904c0-1.371-1.011-1.99-1.972-1.99s-1.805.798-1.805 1.916zm76.683-.028C96.771 5.275 95.532 3.9 93.664 3.9c-1.074 0-1.723.477-1.961.672v-.547h-1.242v8.22h1.258V9.583c.414.36 1.063.68 1.93.68 1.91 0 3.198-1.473 3.16-3.23zm-1.309.08c0-1.119-.723-1.978-1.836-1.978a1.88 1.88 0 0 0-1.94 1.904c0 1.371 1.011 1.99 1.972 1.99S95.5 8.231 95.5 7.113zM106.441 10.173V4.036h1.254v.382c.361-.346 1-.485 1.47-.485 1.452 0 2.477 1.082 2.457 2.448v3.792h-1.27V6.492c0-.408-.214-1.339-1.315-1.339-.969 0-1.342.756-1.342 1.339v3.681h-1.254zm-30.383-.021V1.824h1.084l4.215 5.777V1.824h1.32v8.328h-1.094l-4.207-5.796v5.796h-1.319zM5.24 10.149H4V2.377h1.014l2.664 3.597 2.654-3.592h1.03v7.766h-1.256V4.762L7.678 8.068 5.24 4.742v5.407z" transform="translate(642.1279296875, 353.553955078125)" fill="#80808088" stroke="none"></path></svg>